<svg width="768pt" height="768pt" version="1.0" viewBox="0 0 768 768" xmlns="http://www.w3.org/2000/svg">
 <g transform="matrix(.75 0 0 .75 -68.82 152.25)">
  <circle cx="603.76" cy="309" r="512" fill="#00c1c0" opacity=".99949" stroke-width="2.7432"/>
  <g transform="matrix(.2292 0 0 -.2292 -780.07 975.98)" fill="#003f72">
   <path d="m4708 3653c-110-109-209-214-221-233-21-33-22-47-25-313l-4-279 138-139c103-104 144-139 163-139 18 0 59 34 158 132 73 73 133 137 133 143s-54 64-120 130c-170 169-175 144 76 396 160 160 197 202 197 225 0 22-26 52-125 151-89 88-131 123-148 123-18 0-77-53-222-197z"/>
   <path d="m5591 3354c-281-273-518-509-526-525-12-23-15-82-15-311v-283l132-132c100-100 139-133 158-133 18 0 58 33 157 132l133 132 47-45c27-25 62-55 78-67 48-32 141-55 197-49 100 12 137 40 433 318 153 145 491 463 750 707 258 243 474 454 480 468 8 23-1 34-120 154-86 86-137 130-151 130-15 0-187-157-546-497-288-274-668-634-843-801l-320-303-122 124c-115 116-123 126-123 163 0 45-61-18 593 613 297 287 417 409 417 425 0 29-247 276-276 276-14 0-190-163-533-496z"/>
  </g>
 </g>
</svg>
